<?xml version="1.0" encoding="utf-8"?>
<!-- Generator: Adobe Illustrator 21.0.0, SVG Export Plug-In . SVG Version: 6.00 Build 0)  -->
<svg version="1.1" id="图层_1" xmlns="http://www.w3.org/2000/svg" xmlns:xlink="http://www.w3.org/1999/xlink" x="0px" y="0px"
	 viewBox="0 0 900 650" style="enable-background:new 0 0 900 650;" xml:space="preserve">
<style type="text/css">
	.st0{fill:none;}
	.st1{fill:#CDD5DF;}
</style>
<rect x="193" y="85" class="st0" width="512.9" height="480.7"/>
<path class="st1" d="M236.3,150.9v328.7h61.9v81.1l131-81.1h234.6V150.9H236.3z M335,345c-21.4,0-38.7-17.3-38.7-38.7
	c0-21.4,17.3-38.7,38.7-38.7s38.7,17.3,38.7,38.7C373.7,327.7,356.4,345,335,345z M450,345c-21.4,0-38.7-17.3-38.7-38.7
	c0-21.4,17.3-38.7,38.7-38.7s38.7,17.3,38.7,38.7C488.7,327.7,471.4,345,450,345z M565,345c-21.4,0-38.7-17.3-38.7-38.7
	c0-21.4,17.3-38.7,38.7-38.7s38.7,17.3,38.7,38.7C603.7,327.7,586.4,345,565,345z"/>
</svg>
