<?xml version="1.0" encoding="utf-8"?>
<!-- Generator: Adobe Illustrator 21.0.0, SVG Export Plug-In . SVG Version: 6.00 Build 0)  -->
<svg version="1.1" id="图层_1" xmlns="http://www.w3.org/2000/svg" xmlns:xlink="http://www.w3.org/1999/xlink" x="0px" y="0px"
	 viewBox="0 0 900 650" style="enable-background:new 0 0 900 650;" xml:space="preserve">
<style type="text/css">
	.st0{clip-path:url(#SVGID_2_);fill:#CDD5DF;}
</style>
<g>
	<g>
		<defs>
			<rect id="SVGID_1_" x="12" y="-85" width="874.8" height="820.7"/>
		</defs>
		<clipPath id="SVGID_2_">
			<use xlink:href="#SVGID_1_"  style="overflow:visible;"/>
		</clipPath>
		<path class="st0" d="M322,486.2h27.1c15.1,0.3,27.6-11.8,28-26.9V320.5c-0.3-15.1-12.8-27.2-28-26.9H322
			c-15.1-0.3-27.7,11.7-28,26.9v138.9C294.4,474.5,306.9,486.5,322,486.2L322,486.2z M461.7,486.2h27.1c15.1,0.3,27.6-11.8,28-26.9
			V149.5c-0.3-15.1-12.8-27.2-28-26.9h-27.1c-15.1-0.3-27.6,11.7-28,26.9v309.9C434.1,474.5,446.6,486.5,461.7,486.2L461.7,486.2z
			 M604.1,486.2h27.1c15.1,0.3,27.6-11.7,28-26.9V242.8c-0.3-15.1-12.8-27.2-28-26.9h-27.1c-15.1-0.3-27.6,11.7-28,26.9v216.5
			C576.4,474.5,588.9,486.5,604.1,486.2L604.1,486.2z M604.1,486.2"/>
		<path class="st0" d="M680.1,513.1H247.7V109.8c-0.7-14.9-13-26.7-27.9-26.7c-14.9,0-27.2,11.7-27.9,26.7V540
			c0.3,15.1,12.8,27.2,28,26.9h462.6c14.8-0.6,26.4-13.2,25.8-28C707.5,524,695,512.5,680.1,513.1L680.1,513.1z M680.1,513.1"/>
	</g>
</g>
</svg>
