<?xml version="1.0" encoding="utf-8"?>
<!-- Generator: Adobe Illustrator 21.0.0, SVG Export Plug-In . SVG Version: 6.00 Build 0)  -->
<svg version="1.1" id="图层_1" xmlns="http://www.w3.org/2000/svg" xmlns:xlink="http://www.w3.org/1999/xlink" x="0px" y="0px"
	 viewBox="0 0 900 650" style="enable-background:new 0 0 900 650;" xml:space="preserve">
<style type="text/css">
	.st0{fill:#FFFFFF;}
</style>
<g>
	<path class="st0" d="M449.7,112.9v-0.6V112.9z M388.7,554.4h-83.9c-8.4,0-15.2-6.8-15.2-15.2V340.9h-61c-4.2,0-7.6-3.4-7.6-7.6
		c0-2.5,1.2-4.7,3-6.1h0l219-226.3c1.3-2.3,3.8-3.9,6.6-3.9c2.9,0,5.4,1.6,6.7,3.9l219,226.3c1.8,1.4,3,3.6,3,6.1
		c0,4.2-3.4,7.6-7.6,7.6v0h-76.2v198.2c0,8.4-6.8,15.2-15.2,15.2h-83.9V440c0-8.4-6.8-15.2-15.3-15.2H404c-8.4,0-15.3,6.8-15.3,15.2
		V554.4z M388.7,554.4"/>
</g>
</svg>
