<?xml version="1.0" encoding="utf-8"?>
<!-- Generator: Adobe Illustrator 21.0.0, SVG Export Plug-In . SVG Version: 6.00 Build 0)  -->
<svg version="1.1" id="图层_1" xmlns="http://www.w3.org/2000/svg" xmlns:xlink="http://www.w3.org/1999/xlink" x="0px" y="0px"
	 viewBox="0 0 900 650" style="enable-background:new 0 0 900 650;" xml:space="preserve">
<style type="text/css">
	.st0{clip-path:url(#SVGID_2_);fill:none;}
</style>
<g>
	<defs>
		<rect id="SVGID_1_" x="58" y="3" width="783.8" height="645.8"/>
	</defs>
	<clipPath id="SVGID_2_">
		<use xlink:href="#SVGID_1_"  style="overflow:visible;"/>
	</clipPath>
	<path class="st0" d="M479.2,580.1c-5.6,13.5-21.2,20-34.7,14.3L136.7,466.6c-13.5-5.6-20-21.2-14.3-34.7
		c5.6-13.5,21.2-20,34.7-14.3l307.7,127.9C478.4,551,484.8,566.6,479.2,580.1L479.2,580.1z M479.2,580.1"/>
	<path class="st0" d="M430.4,580c5.6,13.5,21.2,20,34.7,14.3l297.2-123.5c13.5-5.7,20-21.2,14.3-34.7c-5.7-13.5-21.2-20-34.7-14.3
		L444.7,545.3C431.2,550.9,424.8,566.5,430.4,580L430.4,580z M479.2,465.8c-5.6,13.5-21.2,20-34.7,14.3L136.7,352.3
		c-13.5-5.6-20-21.2-14.3-34.7c5.6-13.5,21.2-20,34.7-14.3l307.7,127.9C478.4,436.7,484.8,452.3,479.2,465.8L479.2,465.8z
		 M479.2,465.8"/>
	<path class="st0" d="M430.4,465.7c5.6,13.5,21.2,20,34.7,14.3l297.2-123.5c13.5-5.7,20-21.2,14.3-34.7c-5.7-13.5-21.2-20-34.7-14.3
		L444.7,431C431.2,436.6,424.8,452.2,430.4,465.7L430.4,465.7z M777.1,200.6c-2.4-6.9-7.6-12.7-14.9-15.7L454.6,57
		c-3.4-1.4-7-2.1-10.5-2c-3.5-0.1-7.1,0.6-10.5,2L136.9,180.3c-7.9,3.2-13.3,9.8-15.4,17.4c-0.1,0.1-0.1,0.3-0.1,0.5v0.1
		c-3.6,12.7,2.9,26.4,15.4,31.6l307.7,127.9c6.9,2.8,14.3,2.6,20.6-0.1h0.1l297.2-123.5C775.5,228.7,781.9,213.9,777.1,200.6
		L777.1,200.6z M777.1,200.6"/>
</g>
</svg>
