<?xml version="1.0" encoding="utf-8"?>
<!-- Generator: Adobe Illustrator 21.0.0, SVG Export Plug-In . SVG Version: 6.00 Build 0)  -->
<svg version="1.1" id="图层_1" xmlns="http://www.w3.org/2000/svg" xmlns:xlink="http://www.w3.org/1999/xlink" x="0px" y="0px"
	 viewBox="0 0 900 650" style="enable-background:new 0 0 900 650;" xml:space="preserve">
<style type="text/css">
	.st0{clip-path:url(#SVGID_2_);fill:#FFFFFF;}
</style>
<g>
	<g>
		<defs>
			<rect id="SVGID_1_" x="91" y="104" width="716.9" height="443.8"/>
		</defs>
		<clipPath id="SVGID_2_">
			<use xlink:href="#SVGID_1_"  style="overflow:visible;"/>
		</clipPath>
		<path class="st0" d="M378.5,342.2c9.2,38.9,48.2,63.1,87.2,53.9c38.9-9.2,63.1-48.2,53.9-87.2c-5.9-25.2-24.9-45.3-49.7-52.7
			c-24.8-7.4-51.7-1.1-70.5,16.7C380.5,290.5,372.6,317,378.5,342.2L378.5,342.2z M378.5,342.2"/>
		<path class="st0" d="M801.8,309.5c-6.4-8.4-159.3-205.2-352.8-205.2c-193.4,0-346.3,196.8-352.8,205.2c-7.1,9.2-7.1,22.9,0,32.2
			c6.4,8.4,159.3,205.2,352.8,205.2c193.4,0,346.3-196.8,352.8-205.2C808.9,332.4,808.9,318.7,801.8,309.5L801.8,309.5z M449,443
			c-64.8,0-117.4-52.7-117.4-117.4c0-64.8,52.7-117.5,117.4-117.5c64.8,0,117.4,52.7,117.4,117.5C566.5,390.3,513.8,443,449,443
			L449,443z M449,443"/>
	</g>
</g>
</svg>
