<svg id="图层_1" data-name="图层 1" xmlns="http://www.w3.org/2000/svg" viewBox="0 0 706.73 689.45"><defs><style>.cls-1{fill:#2d6cb5;}</style></defs><title>下发</title><path class="cls-1" d="M771.72-30.16,103.24,229.68A19.05,19.05,0,0,0,96.68,261L232.36,396.64a16.05,16.05,0,0,0,20.8,1.6l297.12-218.8a3.18,3.18,0,0,1,4.24,4.72l-243.6,269.6a16.11,16.11,0,0,0,.56,22.08l24.72,24.72v.08L488,652.32a19.06,19.06,0,0,0,31-6L796.2-4.88c6.64-15.6-8.72-31.44-24.48-25.28Zm0,0" transform="translate(-91.06 31.52)"/></svg>