<?xml version="1.0" standalone="no"?><!DOCTYPE svg PUBLIC "-//W3C//DTD SVG 1.1//EN" "http://www.w3.org/Graphics/SVG/1.1/DTD/svg11.dtd"><svg t="1565762993945" class="icon" viewBox="0 0 1024 1024" version="1.1" xmlns="http://www.w3.org/2000/svg" p-id="7421" xmlns:xlink="http://www.w3.org/1999/xlink" width="200" height="200"><defs><style type="text/css"></style></defs><path d="M361.6 419.3984l300.8 0 0 76.8-300.8 0 0-76.8ZM361.6 291.3984l300.8 0 0 76.8-300.8 0 0-76.8ZM361.6 547.3984l172 0 0 76.8-172 0 0-76.8ZM896 669.7728c-26.2016-43.6672-25.7792-44.4928-25.7792-44.4928s-90.4512 25.3632-107.296-61.3376l-52.4032 0c0 0-14.4512 86.8352-106.8672 61.1264-26.72 44.5312-27.6288 45.9264-27.6544 45.952 0.0384 0.0256 72.3392 50.5408 0 119.1424l28.0768 46.1632c0 0 79.872-34.4576 106.0352 59.6736l53.024 0c0 0 16.6336-86.5024 106.4576-60.928 25.5744-43.6608 25.9904-44.0832 25.9904-44.0832S827.7696 732.5312 896 669.7728L896 669.7728zM735.584 791.0976c-33.7536 0-61.1328-27.3664-61.1328-61.1328s27.3728-61.1392 61.1328-61.1392c33.76 0 61.1392 27.3728 61.1392 61.1392S769.344 791.0976 735.584 791.0976L735.584 791.0976zM735.584 791.0976M306.9504 819.5776c-28.3136 0-51.264-22.9504-51.264-51.264L255.6864 255.6864c0-28.3136 22.9504-51.264 51.264-51.264l410.0992 0c28.32 0 51.264 22.9504 51.264 51.264L768.3136 528 832 528 832 192c0-35.3472-28.6528-64-64-64L256 128c-35.3472 0-64 28.6528-64 64l0 640c0 35.3408 28.6528 64 64 64l294.4 0 0-76.4224L306.9504 819.5776z" p-id="7422" fill="#1875f0"></path></svg>