<?xml version="1.0" encoding="utf-8"?>
<!-- Generator: Adobe Illustrator 21.0.0, SVG Export Plug-In . SVG Version: 6.00 Build 0)  -->
<svg version="1.1" id="图层_1" xmlns="http://www.w3.org/2000/svg" xmlns:xlink="http://www.w3.org/1999/xlink" x="0px" y="0px"
	 viewBox="0 0 255.1 141.7" style="enable-background:new 0 0 255.1 141.7;" xml:space="preserve">
<style type="text/css">
	.st0{fill:#1875F0;}
</style>
<path class="st0" d="M160.1,47.5l25.6-25.5c3.7-3.7,3.7-9.7,0-13.4c-3.7-3.7-9.7-3.7-13.4,0l-25.6,25.6c-0.3,0-0.6,0.1-0.9,0.1
	c-9.8-5.7-21.3-5.7-30,2.7c-0.3,0.2-0.3,0.7,0,1l40.6,40.6c0.3,0.3,0.7,0.2,1,0c8.4-8.8,8.4-20.2,2.7-30
	C160,48.1,160.1,47.8,160.1,47.5L160.1,47.5z M160.1,47.5"/>
<path class="st0" d="M140.8,116.1c0,3.6,1.9,7,5.1,8.8c3.1,1.8,7,1.8,10.1,0c3.1-1.8,5.1-5.1,5.1-8.8c0-3.6-1.9-7-5.1-8.8
	c-3.1-1.8-7-1.8-10.1,0C142.7,109.2,140.8,112.5,140.8,116.1L140.8,116.1z M140.8,116.1"/>
<g>
	<path class="st0" d="M108.6,44.4L149,84.8c0.3,0.3,0.4,0.7,0.1,1.1c-2.2,3.5-13.2,22-16.2,46.5c0,0.2-0.2,0.3-0.4,0.2l-13.7-8.3
		c-0.1-0.1-0.2-0.2-0.1-0.4c1.3-2.7,13.7-28.6,12.4-27.3c-1.3,1.3-9.9,10.4-16.3,19.7l-3.7,5.1c0,0-14.5-9.7-18.9-15.8
		c-0.1-0.1-0.1-0.2,0-0.3c2.9-3.6,18.2-23.4,18.2-23.4l-26,15.6c-0.1,0.1-0.3,0.1-0.4-0.1c-1.3-1.4-9.9-11-12.4-15.5
		c-0.1-0.1-0.1-0.2,0-0.3c2.5-2,16.5-13.9,16.5-13.9l-19.7,7c-0.1,0-0.3,0-0.4-0.1l-7.3-13.7c-0.1-0.2,0-0.4,0.2-0.4
		c3.5-0.7,32.4-6.7,46.5-16.4C107.8,44,108.3,44.1,108.6,44.4L108.6,44.4z M108.6,44.4"/>
</g>
</svg>
